<?xml version="1.0" standalone="no"?>
<!DOCTYPE svg PUBLIC "-//W3C//DTD SVG 20010904//EN"
 "http://www.w3.org/TR/2001/REC-SVG-20010904/DTD/svg10.dtd">
<svg version="1.0" xmlns="http://www.w3.org/2000/svg"
 width="700.000000pt" height="700.000000pt" viewBox="0 0 700.000000 700.000000"
 preserveAspectRatio="xMidYMid meet">
<metadata>
Created by potrace 1.14, written by Peter Selinger 2001-2017
</metadata>
<g transform="translate(0.000000,700.000000) scale(0.100000,-0.100000)"
fill="#000000" stroke="none">
<path d="M3315 6743 c-370 -65 -669 -286 -1028 -760 -120 -160 -367 -541 -410
-633 -4 -8 -17 -31 -29 -50 -42 -70 -207 -408 -266 -545 -106 -250 -212 -561
-247 -725 -2 -8 -8 -35 -14 -60 -12 -53 -19 -92 -27 -140 -3 -19 -7 -46 -10
-60 -27 -156 -26 -488 2 -635 34 -184 75 -311 145 -450 177 -351 492 -624 909
-790 202 -80 447 -146 635 -171 28 -3 59 -8 70 -10 11 -2 52 -7 90 -10 39 -4
81 -8 95 -9 14 -2 40 -3 58 -4 l32 -1 0 -523 0 -524 -365 -1 c-200 0 -368 -3
-372 -5 -9 -6 -9 -339 0 -353 4 -7 1260 -10 1785 -5 l52 1 -2 182 -3 182 -365
1 -365 0 0 523 0 522 30 1 c16 1 41 2 55 4 14 1 61 5 104 9 44 4 82 9 86 11 3
2 32 6 64 10 32 3 101 15 154 26 912 186 1463 713 1550 1478 13 124 5 552 -12
580 -2 3 -7 31 -11 61 -3 30 -11 75 -17 100 -5 25 -12 56 -14 70 -3 14 -10 43
-16 65 -5 22 -12 50 -14 62 -8 43 -74 260 -107 353 -227 631 -621 1268 -1053
1705 -104 104 -199 191 -247 224 -12 8 -28 21 -36 29 -20 20 -148 104 -211
139 -85 48 -193 92 -278 114 -97 26 -284 32 -397 12z m300 -364 c70 -16 203
-79 294 -141 42 -28 78 -54 81 -57 3 -3 28 -24 55 -45 99 -79 324 -313 427
-446 314 -407 535 -796 700 -1235 77 -204 155 -497 174 -650 3 -22 7 -46 9
-53 3 -7 8 -54 12 -105 37 -490 -65 -818 -341 -1092 -182 -182 -419 -311 -741
-404 -82 -24 -296 -67 -375 -76 -140 -16 -215 -22 -220 -18 -3 3 -5 368 -5
811 l0 807 -183 3 -182 2 0 -813 0 -814 -27 2 c-16 2 -58 6 -95 9 -288 25
-622 114 -843 223 -442 220 -675 547 -723 1013 -11 112 -5 325 12 415 2 11 11
61 21 110 92 495 385 1158 760 1720 198 297 424 560 578 674 194 143 419 202
612 160z"/>
</g>
</svg>
